0
SECTION
2
HEADER
9
$INSUNITS
70
4
0
ENDSEC
0
SECTION
2
TABLES
0
TABLE
2
LAYER
70
2
0
LAYER
2
CUT
70
0
62
1
6
CONTINUOUS
0
LAYER
2
ENGRAVE
70
0
62
5
6
CONTINUOUS
0
ENDTAB
0
ENDSEC
0
SECTION
2
ENTITIES
0
LINE
8
CUT
10
6.0000
20
6.0000
11
262.0000
21
6.0000
0
LINE
8
CUT
10
262.0000
20
6.0000
11
262.0000
21
212.0000
0
LINE
8
CUT
10
262.0000
20
212.0000
11
6.0000
21
212.0000
0
LINE
8
CUT
10
6.0000
20
212.0000
11
6.0000
21
6.0000
0
CIRCLE
8
CUT
10
48.0000
20
105.0000
40
1.7000
0
CIRCLE
8
CUT
10
48.0000
20
187.0000
40
1.7000
0
CIRCLE
8
CUT
10
220.0000
20
105.0000
40
1.7000
0
CIRCLE
8
CUT
10
220.0000
20
187.0000
40
1.7000
0
CIRCLE
8
CUT
10
69.0000
20
59.0000
40
2.2500
0
CIRCLE
8
CUT
10
199.0000
20
59.0000
40
2.2500
0
LINE
8
ENGRAVE
10
44.0000
20
101.0000
11
224.0000
21
101.0000
0
LINE
8
ENGRAVE
10
224.0000
20
101.0000
11
224.0000
21
191.0000
0
LINE
8
ENGRAVE
10
224.0000
20
191.0000
11
44.0000
21
191.0000
0
LINE
8
ENGRAVE
10
44.0000
20
191.0000
11
44.0000
21
101.0000
0
TEXT
8
ENGRAVE
10
134.0000
20
144.5000
40
3.50
1
MD0293 16-CH RELAY BOARD 180x90 (relay terminals to the BACK)
72
1
11
134.0000
21
144.5000
0
TEXT
8
ENGRAVE
10
134.0000
20
10.2000
40
3.00
1
FRONT
72
1
11
134.0000
21
10.2000
0
LINE
8
CUT
10
268.0000
20
6.0000
11
524.0000
21
6.0000
0
LINE
8
CUT
10
524.0000
20
6.0000
11
524.0000
21
212.0000
0
LINE
8
CUT
10
524.0000
20
212.0000
11
268.0000
21
212.0000
0
LINE
8
CUT
10
268.0000
20
212.0000
11
268.0000
21
6.0000
0
LINE
8
CUT
10
383.0000
20
34.5000
11
383.3902
21
34.5384
0
LINE
8
CUT
10
383.3902
20
34.5384
11
383.7654
21
34.6522
0
LINE
8
CUT
10
383.7654
20
34.6522
11
384.1111
21
34.8371
0
LINE
8
CUT
10
384.1111
20
34.8371
11
384.4142
21
35.0858
0
LINE
8
CUT
10
384.4142
20
35.0858
11
384.6629
21
35.3889
0
LINE
8
CUT
10
384.6629
20
35.3889
11
384.8478
21
35.7346
0
LINE
8
CUT
10
384.8478
20
35.7346
11
384.9616
21
36.1098
0
LINE
8
CUT
10
384.9616
20
36.1098
11
385.0000
21
36.5000
0
LINE
8
CUT
10
385.0000
20
36.5000
11
385.0000
21
49.5000
0
LINE
8
CUT
10
385.0000
20
49.5000
11
384.9616
21
49.8902
0
LINE
8
CUT
10
384.9616
20
49.8902
11
384.8478
21
50.2654
0
LINE
8
CUT
10
384.8478
20
50.2654
11
384.6629
21
50.6111
0
LINE
8
CUT
10
384.6629
20
50.6111
11
384.4142
21
50.9142
0
LINE
8
CUT
10
384.4142
20
50.9142
11
384.1111
21
51.1629
0
LINE
8
CUT
10
384.1111
20
51.1629
11
383.7654
21
51.3478
0
LINE
8
CUT
10
383.7654
20
51.3478
11
383.3902
21
51.4616
0
LINE
8
CUT
10
383.3902
20
51.4616
11
383.0000
21
51.5000
0
LINE
8
CUT
10
383.0000
20
51.5000
11
363.0000
21
51.5000
0
LINE
8
CUT
10
363.0000
20
51.5000
11
362.6098
21
51.4616
0
LINE
8
CUT
10
362.6098
20
51.4616
11
362.2346
21
51.3478
0
LINE
8
CUT
10
362.2346
20
51.3478
11
361.8889
21
51.1629
0
LINE
8
CUT
10
361.8889
20
51.1629
11
361.5858
21
50.9142
0
LINE
8
CUT
10
361.5858
20
50.9142
11
361.3371
21
50.6111
0
LINE
8
CUT
10
361.3371
20
50.6111
11
361.1522
21
50.2654
0
LINE
8
CUT
10
361.1522
20
50.2654
11
361.0384
21
49.8902
0
LINE
8
CUT
10
361.0384
20
49.8902
11
361.0000
21
49.5000
0
LINE
8
CUT
10
361.0000
20
49.5000
11
361.0000
21
36.5000
0
LINE
8
CUT
10
361.0000
20
36.5000
11
361.0384
21
36.1098
0
LINE
8
CUT
10
361.0384
20
36.1098
11
361.1522
21
35.7346
0
LINE
8
CUT
10
361.1522
20
35.7346
11
361.3371
21
35.3889
0
LINE
8
CUT
10
361.3371
20
35.3889
11
361.5858
21
35.0858
0
LINE
8
CUT
10
361.5858
20
35.0858
11
361.8889
21
34.8371
0
LINE
8
CUT
10
361.8889
20
34.8371
11
362.2346
21
34.6522
0
LINE
8
CUT
10
362.2346
20
34.6522
11
362.6098
21
34.5384
0
LINE
8
CUT
10
362.6098
20
34.5384
11
363.0000
21
34.5000
0
LINE
8
CUT
10
363.0000
20
34.5000
11
383.0000
21
34.5000
0
CIRCLE
8
CUT
10
297.0000
20
137.0000
40
1.7000
0
CIRCLE
8
CUT
10
479.0000
20
137.0000
40
1.7000
0
CIRCLE
8
CUT
10
297.0000
20
15.0000
40
1.7000
0
CIRCLE
8
CUT
10
479.0000
20
15.0000
40
1.7000
0
CIRCLE
8
CUT
10
388.0000
20
67.0000
40
1.7000
0
CIRCLE
8
CUT
10
278.0000
20
16.0000
40
1.7000
0
CIRCLE
8
CUT
10
278.0000
20
202.0000
40
1.7000
0
CIRCLE
8
CUT
10
514.0000
20
16.0000
40
1.7000
0
CIRCLE
8
CUT
10
514.0000
20
202.0000
40
1.7000
0
TEXT
8
ENGRAVE
10
373.0000
20
28.0000
40
4.00
1
PLANT AUTOMATION
72
1
11
373.0000
21
28.0000
0
TEXT
8
ENGRAVE
10
396.0000
20
10.2000
40
3.00
1
FRONT
72
1
11
396.0000
21
10.2000
0
LINE
8
CUT
10
6.0000
20
218.0000
11
262.0000
21
218.0000
0
LINE
8
CUT
10
262.0000
20
218.0000
11
262.0000
21
288.0000
0
LINE
8
CUT
10
262.0000
20
288.0000
11
68.0000
21
288.0000
0
LINE
8
CUT
10
68.0000
20
288.0000
11
68.0000
21
279.1000
0
LINE
8
CUT
10
68.0000
20
279.1000
11
54.0000
21
279.1000
0
LINE
8
CUT
10
54.0000
20
279.1000
11
54.0000
21
288.0000
0
LINE
8
CUT
10
54.0000
20
288.0000
11
6.0000
21
288.0000
0
LINE
8
CUT
10
6.0000
20
288.0000
11
6.0000
21
218.0000
0
TEXT
8
ENGRAVE
10
61.0000
20
273.1000
40
3.00
1
USB
72
1
11
61.0000
21
273.1000
0
LINE
8
CUT
10
268.0000
20
218.0000
11
524.0000
21
218.0000
0
LINE
8
CUT
10
524.0000
20
218.0000
11
524.0000
21
288.0000
0
LINE
8
CUT
10
524.0000
20
288.0000
11
268.0000
21
288.0000
0
LINE
8
CUT
10
268.0000
20
288.0000
11
268.0000
21
218.0000
0
CIRCLE
8
CUT
10
483.0000
20
248.0000
40
7.6000
0
CIRCLE
8
CUT
10
438.0000
20
248.0000
40
7.6000
0
CIRCLE
8
CUT
10
393.0000
20
248.0000
40
7.6000
0
CIRCLE
8
CUT
10
348.0000
20
248.0000
40
7.6000
0
CIRCLE
8
CUT
10
303.0000
20
248.0000
40
7.6000
0
TEXT
8
ENGRAVE
10
483.0000
20
234.0000
40
3.00
1
12V IN
72
1
11
483.0000
21
234.0000
0
TEXT
8
ENGRAVE
10
438.0000
20
234.0000
40
3.00
1
5V IN
72
1
11
438.0000
21
234.0000
0
TEXT
8
ENGRAVE
10
393.0000
20
234.0000
40
3.00
1
PUMP
72
1
11
393.0000
21
234.0000
0
TEXT
8
ENGRAVE
10
348.0000
20
234.0000
40
3.00
1
VALVES 1-3
72
1
11
348.0000
21
234.0000
0
TEXT
8
ENGRAVE
10
303.0000
20
234.0000
40
3.00
1
VALVES 4-6
72
1
11
303.0000
21
234.0000
0
LINE
8
CUT
10
6.0000
20
294.0000
11
206.0000
21
294.0000
0
LINE
8
CUT
10
206.0000
20
294.0000
11
206.0000
21
364.0000
0
LINE
8
CUT
10
206.0000
20
364.0000
11
6.0000
21
364.0000
0
LINE
8
CUT
10
6.0000
20
364.0000
11
6.0000
21
294.0000
0
CIRCLE
8
CUT
10
184.0000
20
324.0000
40
6.2500
0
CIRCLE
8
CUT
10
153.0000
20
324.0000
40
6.2500
0
CIRCLE
8
CUT
10
122.0000
20
324.0000
40
6.2500
0
CIRCLE
8
CUT
10
91.0000
20
324.0000
40
6.2500
0
CIRCLE
8
CUT
10
60.0000
20
324.0000
40
6.2500
0
CIRCLE
8
CUT
10
29.0000
20
324.0000
40
6.2500
0
TEXT
8
ENGRAVE
10
184.0000
20
312.0000
40
2.60
1
DHT22-1
72
1
11
184.0000
21
312.0000
0
TEXT
8
ENGRAVE
10
153.0000
20
312.0000
40
2.60
1
DHT22-2
72
1
11
153.0000
21
312.0000
0
TEXT
8
ENGRAVE
10
122.0000
20
312.0000
40
2.60
1
RAIN
72
1
11
122.0000
21
312.0000
0
TEXT
8
ENGRAVE
10
91.0000
20
312.0000
40
2.60
1
FLOAT LOW
72
1
11
91.0000
21
312.0000
0
TEXT
8
ENGRAVE
10
60.0000
20
312.0000
40
2.60
1
FLOAT HIGH
72
1
11
60.0000
21
312.0000
0
TEXT
8
ENGRAVE
10
29.0000
20
312.0000
40
2.60
1
LOAD CELL
72
1
11
29.0000
21
312.0000
0
LINE
8
CUT
10
212.0000
20
294.0000
11
412.0000
21
294.0000
0
LINE
8
CUT
10
412.0000
20
294.0000
11
412.0000
21
364.0000
0
LINE
8
CUT
10
412.0000
20
364.0000
11
212.0000
21
364.0000
0
LINE
8
CUT
10
212.0000
20
364.0000
11
212.0000
21
294.0000
0
LINE
8
CUT
10
242.0000
20
300.0000
11
242.2926
21
300.0288
0
LINE
8
CUT
10
242.2926
20
300.0288
11
242.5740
21
300.1142
0
LINE
8
CUT
10
242.5740
20
300.1142
11
242.8334
21
300.2528
0
LINE
8
CUT
10
242.8334
20
300.2528
11
243.0607
21
300.4393
0
LINE
8
CUT
10
243.0607
20
300.4393
11
243.2472
21
300.6666
0
LINE
8
CUT
10
243.2472
20
300.6666
11
243.3858
21
300.9260
0
LINE
8
CUT
10
243.3858
20
300.9260
11
243.4712
21
301.2074
0
LINE
8
CUT
10
243.4712
20
301.2074
11
243.5000
21
301.5000
0
LINE
8
CUT
10
243.5000
20
301.5000
11
243.5000
21
310.5000
0
LINE
8
CUT
10
243.5000
20
310.5000
11
243.4712
21
310.7926
0
LINE
8
CUT
10
243.4712
20
310.7926
11
243.3858
21
311.0740
0
LINE
8
CUT
10
243.3858
20
311.0740
11
243.2472
21
311.3334
0
LINE
8
CUT
10
243.2472
20
311.3334
11
243.0607
21
311.5607
0
LINE
8
CUT
10
243.0607
20
311.5607
11
242.8334
21
311.7472
0
LINE
8
CUT
10
242.8334
20
311.7472
11
242.5740
21
311.8858
0
LINE
8
CUT
10
242.5740
20
311.8858
11
242.2926
21
311.9712
0
LINE
8
CUT
10
242.2926
20
311.9712
11
242.0000
21
312.0000
0
LINE
8
CUT
10
242.0000
20
312.0000
11
242.0000
21
312.0000
0
LINE
8
CUT
10
242.0000
20
312.0000
11
241.7074
21
311.9712
0
LINE
8
CUT
10
241.7074
20
311.9712
11
241.4260
21
311.8858
0
LINE
8
CUT
10
241.4260
20
311.8858
11
241.1666
21
311.7472
0
LINE
8
CUT
10
241.1666
20
311.7472
11
240.9393
21
311.5607
0
LINE
8
CUT
10
240.9393
20
311.5607
11
240.7528
21
311.3334
0
LINE
8
CUT
10
240.7528
20
311.3334
11
240.6142
21
311.0740
0
LINE
8
CUT
10
240.6142
20
311.0740
11
240.5288
21
310.7926
0
LINE
8
CUT
10
240.5288
20
310.7926
11
240.5000
21
310.5000
0
LINE
8
CUT
10
240.5000
20
310.5000
11
240.5000
21
301.5000
0
LINE
8
CUT
10
240.5000
20
301.5000
11
240.5288
21
301.2074
0
LINE
8
CUT
10
240.5288
20
301.2074
11
240.6142
21
300.9260
0
LINE
8
CUT
10
240.6142
20
300.9260
11
240.7528
21
300.6666
0
LINE
8
CUT
10
240.7528
20
300.6666
11
240.9393
21
300.4393
0
LINE
8
CUT
10
240.9393
20
300.4393
11
241.1666
21
300.2528
0
LINE
8
CUT
10
241.1666
20
300.2528
11
241.4260
21
300.1142
0
LINE
8
CUT
10
241.4260
20
300.1142
11
241.7074
21
300.0288
0
LINE
8
CUT
10
241.7074
20
300.0288
11
242.0000
21
300.0000
0
LINE
8
CUT
10
242.0000
20
300.0000
11
242.0000
21
300.0000
0
LINE
8
CUT
10
262.0000
20
300.0000
11
262.2926
21
300.0288
0
LINE
8
CUT
10
262.2926
20
300.0288
11
262.5740
21
300.1142
0
LINE
8
CUT
10
262.5740
20
300.1142
11
262.8334
21
300.2528
0
LINE
8
CUT
10
262.8334
20
300.2528
11
263.0607
21
300.4393
0
LINE
8
CUT
10
263.0607
20
300.4393
11
263.2472
21
300.6666
0
LINE
8
CUT
10
263.2472
20
300.6666
11
263.3858
21
300.9260
0
LINE
8
CUT
10
263.3858
20
300.9260
11
263.4712
21
301.2074
0
LINE
8
CUT
10
263.4712
20
301.2074
11
263.5000
21
301.5000
0
LINE
8
CUT
10
263.5000
20
301.5000
11
263.5000
21
310.5000
0
LINE
8
CUT
10
263.5000
20
310.5000
11
263.4712
21
310.7926
0
LINE
8
CUT
10
263.4712
20
310.7926
11
263.3858
21
311.0740
0
LINE
8
CUT
10
263.3858
20
311.0740
11
263.2472
21
311.3334
0
LINE
8
CUT
10
263.2472
20
311.3334
11
263.0607
21
311.5607
0
LINE
8
CUT
10
263.0607
20
311.5607
11
262.8334
21
311.7472
0
LINE
8
CUT
10
262.8334
20
311.7472
11
262.5740
21
311.8858
0
LINE
8
CUT
10
262.5740
20
311.8858
11
262.2926
21
311.9712
0
LINE
8
CUT
10
262.2926
20
311.9712
11
262.0000
21
312.0000
0
LINE
8
CUT
10
262.0000
20
312.0000
11
262.0000
21
312.0000
0
LINE
8
CUT
10
262.0000
20
312.0000
11
261.7074
21
311.9712
0
LINE
8
CUT
10
261.7074
20
311.9712
11
261.4260
21
311.8858
0
LINE
8
CUT
10
261.4260
20
311.8858
11
261.1666
21
311.7472
0
LINE
8
CUT
10
261.1666
20
311.7472
11
260.9393
21
311.5607
0
LINE
8
CUT
10
260.9393
20
311.5607
11
260.7528
21
311.3334
0
LINE
8
CUT
10
260.7528
20
311.3334
11
260.6142
21
311.0740
0
LINE
8
CUT
10
260.6142
20
311.0740
11
260.5288
21
310.7926
0
LINE
8
CUT
10
260.5288
20
310.7926
11
260.5000
21
310.5000
0
LINE
8
CUT
10
260.5000
20
310.5000
11
260.5000
21
301.5000
0
LINE
8
CUT
10
260.5000
20
301.5000
11
260.5288
21
301.2074
0
LINE
8
CUT
10
260.5288
20
301.2074
11
260.6142
21
300.9260
0
LINE
8
CUT
10
260.6142
20
300.9260
11
260.7528
21
300.6666
0
LINE
8
CUT
10
260.7528
20
300.6666
11
260.9393
21
300.4393
0
LINE
8
CUT
10
260.9393
20
300.4393
11
261.1666
21
300.2528
0
LINE
8
CUT
10
261.1666
20
300.2528
11
261.4260
21
300.1142
0
LINE
8
CUT
10
261.4260
20
300.1142
11
261.7074
21
300.0288
0
LINE
8
CUT
10
261.7074
20
300.0288
11
262.0000
21
300.0000
0
LINE
8
CUT
10
262.0000
20
300.0000
11
262.0000
21
300.0000
0
LINE
8
CUT
10
282.0000
20
300.0000
11
282.2926
21
300.0288
0
LINE
8
CUT
10
282.2926
20
300.0288
11
282.5740
21
300.1142
0
LINE
8
CUT
10
282.5740
20
300.1142
11
282.8334
21
300.2528
0
LINE
8
CUT
10
282.8334
20
300.2528
11
283.0607
21
300.4393
0
LINE
8
CUT
10
283.0607
20
300.4393
11
283.2472
21
300.6666
0
LINE
8
CUT
10
283.2472
20
300.6666
11
283.3858
21
300.9260
0
LINE
8
CUT
10
283.3858
20
300.9260
11
283.4712
21
301.2074
0
LINE
8
CUT
10
283.4712
20
301.2074
11
283.5000
21
301.5000
0
LINE
8
CUT
10
283.5000
20
301.5000
11
283.5000
21
310.5000
0
LINE
8
CUT
10
283.5000
20
310.5000
11
283.4712
21
310.7926
0
LINE
8
CUT
10
283.4712
20
310.7926
11
283.3858
21
311.0740
0
LINE
8
CUT
10
283.3858
20
311.0740
11
283.2472
21
311.3334
0
LINE
8
CUT
10
283.2472
20
311.3334
11
283.0607
21
311.5607
0
LINE
8
CUT
10
283.0607
20
311.5607
11
282.8334
21
311.7472
0
LINE
8
CUT
10
282.8334
20
311.7472
11
282.5740
21
311.8858
0
LINE
8
CUT
10
282.5740
20
311.8858
11
282.2926
21
311.9712
0
LINE
8
CUT
10
282.2926
20
311.9712
11
282.0000
21
312.0000
0
LINE
8
CUT
10
282.0000
20
312.0000
11
282.0000
21
312.0000
0
LINE
8
CUT
10
282.0000
20
312.0000
11
281.7074
21
311.9712
0
LINE
8
CUT
10
281.7074
20
311.9712
11
281.4260
21
311.8858
0
LINE
8
CUT
10
281.4260
20
311.8858
11
281.1666
21
311.7472
0
LINE
8
CUT
10
281.1666
20
311.7472
11
280.9393
21
311.5607
0
LINE
8
CUT
10
280.9393
20
311.5607
11
280.7528
21
311.3334
0
LINE
8
CUT
10
280.7528
20
311.3334
11
280.6142
21
311.0740
0
LINE
8
CUT
10
280.6142
20
311.0740
11
280.5288
21
310.7926
0
LINE
8
CUT
10
280.5288
20
310.7926
11
280.5000
21
310.5000
0
LINE
8
CUT
10
280.5000
20
310.5000
11
280.5000
21
301.5000
0
LINE
8
CUT
10
280.5000
20
301.5000
11
280.5288
21
301.2074
0
LINE
8
CUT
10
280.5288
20
301.2074
11
280.6142
21
300.9260
0
LINE
8
CUT
10
280.6142
20
300.9260
11
280.7528
21
300.6666
0
LINE
8
CUT
10
280.7528
20
300.6666
11
280.9393
21
300.4393
0
LINE
8
CUT
10
280.9393
20
300.4393
11
281.1666
21
300.2528
0
LINE
8
CUT
10
281.1666
20
300.2528
11
281.4260
21
300.1142
0
LINE
8
CUT
10
281.4260
20
300.1142
11
281.7074
21
300.0288
0
LINE
8
CUT
10
281.7074
20
300.0288
11
282.0000
21
300.0000
0
LINE
8
CUT
10
282.0000
20
300.0000
11
282.0000
21
300.0000
0
LINE
8
CUT
10
302.0000
20
300.0000
11
302.2926
21
300.0288
0
LINE
8
CUT
10
302.2926
20
300.0288
11
302.5740
21
300.1142
0
LINE
8
CUT
10
302.5740
20
300.1142
11
302.8334
21
300.2528
0
LINE
8
CUT
10
302.8334
20
300.2528
11
303.0607
21
300.4393
0
LINE
8
CUT
10
303.0607
20
300.4393
11
303.2472
21
300.6666
0
LINE
8
CUT
10
303.2472
20
300.6666
11
303.3858
21
300.9260
0
LINE
8
CUT
10
303.3858
20
300.9260
11
303.4712
21
301.2074
0
LINE
8
CUT
10
303.4712
20
301.2074
11
303.5000
21
301.5000
0
LINE
8
CUT
10
303.5000
20
301.5000
11
303.5000
21
310.5000
0
LINE
8
CUT
10
303.5000
20
310.5000
11
303.4712
21
310.7926
0
LINE
8
CUT
10
303.4712
20
310.7926
11
303.3858
21
311.0740
0
LINE
8
CUT
10
303.3858
20
311.0740
11
303.2472
21
311.3334
0
LINE
8
CUT
10
303.2472
20
311.3334
11
303.0607
21
311.5607
0
LINE
8
CUT
10
303.0607
20
311.5607
11
302.8334
21
311.7472
0
LINE
8
CUT
10
302.8334
20
311.7472
11
302.5740
21
311.8858
0
LINE
8
CUT
10
302.5740
20
311.8858
11
302.2926
21
311.9712
0
LINE
8
CUT
10
302.2926
20
311.9712
11
302.0000
21
312.0000
0
LINE
8
CUT
10
302.0000
20
312.0000
11
302.0000
21
312.0000
0
LINE
8
CUT
10
302.0000
20
312.0000
11
301.7074
21
311.9712
0
LINE
8
CUT
10
301.7074
20
311.9712
11
301.4260
21
311.8858
0
LINE
8
CUT
10
301.4260
20
311.8858
11
301.1666
21
311.7472
0
LINE
8
CUT
10
301.1666
20
311.7472
11
300.9393
21
311.5607
0
LINE
8
CUT
10
300.9393
20
311.5607
11
300.7528
21
311.3334
0
LINE
8
CUT
10
300.7528
20
311.3334
11
300.6142
21
311.0740
0
LINE
8
CUT
10
300.6142
20
311.0740
11
300.5288
21
310.7926
0
LINE
8
CUT
10
300.5288
20
310.7926
11
300.5000
21
310.5000
0
LINE
8
CUT
10
300.5000
20
310.5000
11
300.5000
21
301.5000
0
LINE
8
CUT
10
300.5000
20
301.5000
11
300.5288
21
301.2074
0
LINE
8
CUT
10
300.5288
20
301.2074
11
300.6142
21
300.9260
0
LINE
8
CUT
10
300.6142
20
300.9260
11
300.7528
21
300.6666
0
LINE
8
CUT
10
300.7528
20
300.6666
11
300.9393
21
300.4393
0
LINE
8
CUT
10
300.9393
20
300.4393
11
301.1666
21
300.2528
0
LINE
8
CUT
10
301.1666
20
300.2528
11
301.4260
21
300.1142
0
LINE
8
CUT
10
301.4260
20
300.1142
11
301.7074
21
300.0288
0
LINE
8
CUT
10
301.7074
20
300.0288
11
302.0000
21
300.0000
0
LINE
8
CUT
10
302.0000
20
300.0000
11
302.0000
21
300.0000
0
LINE
8
CUT
10
322.0000
20
300.0000
11
322.2926
21
300.0288
0
LINE
8
CUT
10
322.2926
20
300.0288
11
322.5740
21
300.1142
0
LINE
8
CUT
10
322.5740
20
300.1142
11
322.8334
21
300.2528
0
LINE
8
CUT
10
322.8334
20
300.2528
11
323.0607
21
300.4393
0
LINE
8
CUT
10
323.0607
20
300.4393
11
323.2472
21
300.6666
0
LINE
8
CUT
10
323.2472
20
300.6666
11
323.3858
21
300.9260
0
LINE
8
CUT
10
323.3858
20
300.9260
11
323.4712
21
301.2074
0
LINE
8
CUT
10
323.4712
20
301.2074
11
323.5000
21
301.5000
0
LINE
8
CUT
10
323.5000
20
301.5000
11
323.5000
21
310.5000
0
LINE
8
CUT
10
323.5000
20
310.5000
11
323.4712
21
310.7926
0
LINE
8
CUT
10
323.4712
20
310.7926
11
323.3858
21
311.0740
0
LINE
8
CUT
10
323.3858
20
311.0740
11
323.2472
21
311.3334
0
LINE
8
CUT
10
323.2472
20
311.3334
11
323.0607
21
311.5607
0
LINE
8
CUT
10
323.0607
20
311.5607
11
322.8334
21
311.7472
0
LINE
8
CUT
10
322.8334
20
311.7472
11
322.5740
21
311.8858
0
LINE
8
CUT
10
322.5740
20
311.8858
11
322.2926
21
311.9712
0
LINE
8
CUT
10
322.2926
20
311.9712
11
322.0000
21
312.0000
0
LINE
8
CUT
10
322.0000
20
312.0000
11
322.0000
21
312.0000
0
LINE
8
CUT
10
322.0000
20
312.0000
11
321.7074
21
311.9712
0
LINE
8
CUT
10
321.7074
20
311.9712
11
321.4260
21
311.8858
0
LINE
8
CUT
10
321.4260
20
311.8858
11
321.1666
21
311.7472
0
LINE
8
CUT
10
321.1666
20
311.7472
11
320.9393
21
311.5607
0
LINE
8
CUT
10
320.9393
20
311.5607
11
320.7528
21
311.3334
0
LINE
8
CUT
10
320.7528
20
311.3334
11
320.6142
21
311.0740
0
LINE
8
CUT
10
320.6142
20
311.0740
11
320.5288
21
310.7926
0
LINE
8
CUT
10
320.5288
20
310.7926
11
320.5000
21
310.5000
0
LINE
8
CUT
10
320.5000
20
310.5000
11
320.5000
21
301.5000
0
LINE
8
CUT
10
320.5000
20
301.5000
11
320.5288
21
301.2074
0
LINE
8
CUT
10
320.5288
20
301.2074
11
320.6142
21
300.9260
0
LINE
8
CUT
10
320.6142
20
300.9260
11
320.7528
21
300.6666
0
LINE
8
CUT
10
320.7528
20
300.6666
11
320.9393
21
300.4393
0
LINE
8
CUT
10
320.9393
20
300.4393
11
321.1666
21
300.2528
0
LINE
8
CUT
10
321.1666
20
300.2528
11
321.4260
21
300.1142
0
LINE
8
CUT
10
321.4260
20
300.1142
11
321.7074
21
300.0288
0
LINE
8
CUT
10
321.7074
20
300.0288
11
322.0000
21
300.0000
0
LINE
8
CUT
10
322.0000
20
300.0000
11
322.0000
21
300.0000
0
LINE
8
CUT
10
342.0000
20
300.0000
11
342.2926
21
300.0288
0
LINE
8
CUT
10
342.2926
20
300.0288
11
342.5740
21
300.1142
0
LINE
8
CUT
10
342.5740
20
300.1142
11
342.8334
21
300.2528
0
LINE
8
CUT
10
342.8334
20
300.2528
11
343.0607
21
300.4393
0
LINE
8
CUT
10
343.0607
20
300.4393
11
343.2472
21
300.6666
0
LINE
8
CUT
10
343.2472
20
300.6666
11
343.3858
21
300.9260
0
LINE
8
CUT
10
343.3858
20
300.9260
11
343.4712
21
301.2074
0
LINE
8
CUT
10
343.4712
20
301.2074
11
343.5000
21
301.5000
0
LINE
8
CUT
10
343.5000
20
301.5000
11
343.5000
21
310.5000
0
LINE
8
CUT
10
343.5000
20
310.5000
11
343.4712
21
310.7926
0
LINE
8
CUT
10
343.4712
20
310.7926
11
343.3858
21
311.0740
0
LINE
8
CUT
10
343.3858
20
311.0740
11
343.2472
21
311.3334
0
LINE
8
CUT
10
343.2472
20
311.3334
11
343.0607
21
311.5607
0
LINE
8
CUT
10
343.0607
20
311.5607
11
342.8334
21
311.7472
0
LINE
8
CUT
10
342.8334
20
311.7472
11
342.5740
21
311.8858
0
LINE
8
CUT
10
342.5740
20
311.8858
11
342.2926
21
311.9712
0
LINE
8
CUT
10
342.2926
20
311.9712
11
342.0000
21
312.0000
0
LINE
8
CUT
10
342.0000
20
312.0000
11
342.0000
21
312.0000
0
LINE
8
CUT
10
342.0000
20
312.0000
11
341.7074
21
311.9712
0
LINE
8
CUT
10
341.7074
20
311.9712
11
341.4260
21
311.8858
0
LINE
8
CUT
10
341.4260
20
311.8858
11
341.1666
21
311.7472
0
LINE
8
CUT
10
341.1666
20
311.7472
11
340.9393
21
311.5607
0
LINE
8
CUT
10
340.9393
20
311.5607
11
340.7528
21
311.3334
0
LINE
8
CUT
10
340.7528
20
311.3334
11
340.6142
21
311.0740
0
LINE
8
CUT
10
340.6142
20
311.0740
11
340.5288
21
310.7926
0
LINE
8
CUT
10
340.5288
20
310.7926
11
340.5000
21
310.5000
0
LINE
8
CUT
10
340.5000
20
310.5000
11
340.5000
21
301.5000
0
LINE
8
CUT
10
340.5000
20
301.5000
11
340.5288
21
301.2074
0
LINE
8
CUT
10
340.5288
20
301.2074
11
340.6142
21
300.9260
0
LINE
8
CUT
10
340.6142
20
300.9260
11
340.7528
21
300.6666
0
LINE
8
CUT
10
340.7528
20
300.6666
11
340.9393
21
300.4393
0
LINE
8
CUT
10
340.9393
20
300.4393
11
341.1666
21
300.2528
0
LINE
8
CUT
10
341.1666
20
300.2528
11
341.4260
21
300.1142
0
LINE
8
CUT
10
341.4260
20
300.1142
11
341.7074
21
300.0288
0
LINE
8
CUT
10
341.7074
20
300.0288
11
342.0000
21
300.0000
0
LINE
8
CUT
10
342.0000
20
300.0000
11
342.0000
21
300.0000
0
LINE
8
CUT
10
362.0000
20
300.0000
11
362.2926
21
300.0288
0
LINE
8
CUT
10
362.2926
20
300.0288
11
362.5740
21
300.1142
0
LINE
8
CUT
10
362.5740
20
300.1142
11
362.8334
21
300.2528
0
LINE
8
CUT
10
362.8334
20
300.2528
11
363.0607
21
300.4393
0
LINE
8
CUT
10
363.0607
20
300.4393
11
363.2472
21
300.6666
0
LINE
8
CUT
10
363.2472
20
300.6666
11
363.3858
21
300.9260
0
LINE
8
CUT
10
363.3858
20
300.9260
11
363.4712
21
301.2074
0
LINE
8
CUT
10
363.4712
20
301.2074
11
363.5000
21
301.5000
0
LINE
8
CUT
10
363.5000
20
301.5000
11
363.5000
21
310.5000
0
LINE
8
CUT
10
363.5000
20
310.5000
11
363.4712
21
310.7926
0
LINE
8
CUT
10
363.4712
20
310.7926
11
363.3858
21
311.0740
0
LINE
8
CUT
10
363.3858
20
311.0740
11
363.2472
21
311.3334
0
LINE
8
CUT
10
363.2472
20
311.3334
11
363.0607
21
311.5607
0
LINE
8
CUT
10
363.0607
20
311.5607
11
362.8334
21
311.7472
0
LINE
8
CUT
10
362.8334
20
311.7472
11
362.5740
21
311.8858
0
LINE
8
CUT
10
362.5740
20
311.8858
11
362.2926
21
311.9712
0
LINE
8
CUT
10
362.2926
20
311.9712
11
362.0000
21
312.0000
0
LINE
8
CUT
10
362.0000
20
312.0000
11
362.0000
21
312.0000
0
LINE
8
CUT
10
362.0000
20
312.0000
11
361.7074
21
311.9712
0
LINE
8
CUT
10
361.7074
20
311.9712
11
361.4260
21
311.8858
0
LINE
8
CUT
10
361.4260
20
311.8858
11
361.1666
21
311.7472
0
LINE
8
CUT
10
361.1666
20
311.7472
11
360.9393
21
311.5607
0
LINE
8
CUT
10
360.9393
20
311.5607
11
360.7528
21
311.3334
0
LINE
8
CUT
10
360.7528
20
311.3334
11
360.6142
21
311.0740
0
LINE
8
CUT
10
360.6142
20
311.0740
11
360.5288
21
310.7926
0
LINE
8
CUT
10
360.5288
20
310.7926
11
360.5000
21
310.5000
0
LINE
8
CUT
10
360.5000
20
310.5000
11
360.5000
21
301.5000
0
LINE
8
CUT
10
360.5000
20
301.5000
11
360.5288
21
301.2074
0
LINE
8
CUT
10
360.5288
20
301.2074
11
360.6142
21
300.9260
0
LINE
8
CUT
10
360.6142
20
300.9260
11
360.7528
21
300.6666
0
LINE
8
CUT
10
360.7528
20
300.6666
11
360.9393
21
300.4393
0
LINE
8
CUT
10
360.9393
20
300.4393
11
361.1666
21
300.2528
0
LINE
8
CUT
10
361.1666
20
300.2528
11
361.4260
21
300.1142
0
LINE
8
CUT
10
361.4260
20
300.1142
11
361.7074
21
300.0288
0
LINE
8
CUT
10
361.7074
20
300.0288
11
362.0000
21
300.0000
0
LINE
8
CUT
10
362.0000
20
300.0000
11
362.0000
21
300.0000
0
LINE
8
CUT
10
382.0000
20
300.0000
11
382.2926
21
300.0288
0
LINE
8
CUT
10
382.2926
20
300.0288
11
382.5740
21
300.1142
0
LINE
8
CUT
10
382.5740
20
300.1142
11
382.8334
21
300.2528
0
LINE
8
CUT
10
382.8334
20
300.2528
11
383.0607
21
300.4393
0
LINE
8
CUT
10
383.0607
20
300.4393
11
383.2472
21
300.6666
0
LINE
8
CUT
10
383.2472
20
300.6666
11
383.3858
21
300.9260
0
LINE
8
CUT
10
383.3858
20
300.9260
11
383.4712
21
301.2074
0
LINE
8
CUT
10
383.4712
20
301.2074
11
383.5000
21
301.5000
0
LINE
8
CUT
10
383.5000
20
301.5000
11
383.5000
21
310.5000
0
LINE
8
CUT
10
383.5000
20
310.5000
11
383.4712
21
310.7926
0
LINE
8
CUT
10
383.4712
20
310.7926
11
383.3858
21
311.0740
0
LINE
8
CUT
10
383.3858
20
311.0740
11
383.2472
21
311.3334
0
LINE
8
CUT
10
383.2472
20
311.3334
11
383.0607
21
311.5607
0
LINE
8
CUT
10
383.0607
20
311.5607
11
382.8334
21
311.7472
0
LINE
8
CUT
10
382.8334
20
311.7472
11
382.5740
21
311.8858
0
LINE
8
CUT
10
382.5740
20
311.8858
11
382.2926
21
311.9712
0
LINE
8
CUT
10
382.2926
20
311.9712
11
382.0000
21
312.0000
0
LINE
8
CUT
10
382.0000
20
312.0000
11
382.0000
21
312.0000
0
LINE
8
CUT
10
382.0000
20
312.0000
11
381.7074
21
311.9712
0
LINE
8
CUT
10
381.7074
20
311.9712
11
381.4260
21
311.8858
0
LINE
8
CUT
10
381.4260
20
311.8858
11
381.1666
21
311.7472
0
LINE
8
CUT
10
381.1666
20
311.7472
11
380.9393
21
311.5607
0
LINE
8
CUT
10
380.9393
20
311.5607
11
380.7528
21
311.3334
0
LINE
8
CUT
10
380.7528
20
311.3334
11
380.6142
21
311.0740
0
LINE
8
CUT
10
380.6142
20
311.0740
11
380.5288
21
310.7926
0
LINE
8
CUT
10
380.5288
20
310.7926
11
380.5000
21
310.5000
0
LINE
8
CUT
10
380.5000
20
310.5000
11
380.5000
21
301.5000
0
LINE
8
CUT
10
380.5000
20
301.5000
11
380.5288
21
301.2074
0
LINE
8
CUT
10
380.5288
20
301.2074
11
380.6142
21
300.9260
0
LINE
8
CUT
10
380.6142
20
300.9260
11
380.7528
21
300.6666
0
LINE
8
CUT
10
380.7528
20
300.6666
11
380.9393
21
300.4393
0
LINE
8
CUT
10
380.9393
20
300.4393
11
381.1666
21
300.2528
0
LINE
8
CUT
10
381.1666
20
300.2528
11
381.4260
21
300.1142
0
LINE
8
CUT
10
381.4260
20
300.1142
11
381.7074
21
300.0288
0
LINE
8
CUT
10
381.7074
20
300.0288
11
382.0000
21
300.0000
0
LINE
8
CUT
10
382.0000
20
300.0000
11
382.0000
21
300.0000
0
LINE
8
CUT
10
242.0000
20
346.0000
11
242.2926
21
346.0288
0
LINE
8
CUT
10
242.2926
20
346.0288
11
242.5740
21
346.1142
0
LINE
8
CUT
10
242.5740
20
346.1142
11
242.8334
21
346.2528
0
LINE
8
CUT
10
242.8334
20
346.2528
11
243.0607
21
346.4393
0
LINE
8
CUT
10
243.0607
20
346.4393
11
243.2472
21
346.6666
0
LINE
8
CUT
10
243.2472
20
346.6666
11
243.3858
21
346.9260
0
LINE
8
CUT
10
243.3858
20
346.9260
11
243.4712
21
347.2074
0
LINE
8
CUT
10
243.4712
20
347.2074
11
243.5000
21
347.5000
0
LINE
8
CUT
10
243.5000
20
347.5000
11
243.5000
21
356.5000
0
LINE
8
CUT
10
243.5000
20
356.5000
11
243.4712
21
356.7926
0
LINE
8
CUT
10
243.4712
20
356.7926
11
243.3858
21
357.0740
0
LINE
8
CUT
10
243.3858
20
357.0740
11
243.2472
21
357.3334
0
LINE
8
CUT
10
243.2472
20
357.3334
11
243.0607
21
357.5607
0
LINE
8
CUT
10
243.0607
20
357.5607
11
242.8334
21
357.7472
0
LINE
8
CUT
10
242.8334
20
357.7472
11
242.5740
21
357.8858
0
LINE
8
CUT
10
242.5740
20
357.8858
11
242.2926
21
357.9712
0
LINE
8
CUT
10
242.2926
20
357.9712
11
242.0000
21
358.0000
0
LINE
8
CUT
10
242.0000
20
358.0000
11
242.0000
21
358.0000
0
LINE
8
CUT
10
242.0000
20
358.0000
11
241.7074
21
357.9712
0
LINE
8
CUT
10
241.7074
20
357.9712
11
241.4260
21
357.8858
0
LINE
8
CUT
10
241.4260
20
357.8858
11
241.1666
21
357.7472
0
LINE
8
CUT
10
241.1666
20
357.7472
11
240.9393
21
357.5607
0
LINE
8
CUT
10
240.9393
20
357.5607
11
240.7528
21
357.3334
0
LINE
8
CUT
10
240.7528
20
357.3334
11
240.6142
21
357.0740
0
LINE
8
CUT
10
240.6142
20
357.0740
11
240.5288
21
356.7926
0
LINE
8
CUT
10
240.5288
20
356.7926
11
240.5000
21
356.5000
0
LINE
8
CUT
10
240.5000
20
356.5000
11
240.5000
21
347.5000
0
LINE
8
CUT
10
240.5000
20
347.5000
11
240.5288
21
347.2074
0
LINE
8
CUT
10
240.5288
20
347.2074
11
240.6142
21
346.9260
0
LINE
8
CUT
10
240.6142
20
346.9260
11
240.7528
21
346.6666
0
LINE
8
CUT
10
240.7528
20
346.6666
11
240.9393
21
346.4393
0
LINE
8
CUT
10
240.9393
20
346.4393
11
241.1666
21
346.2528
0
LINE
8
CUT
10
241.1666
20
346.2528
11
241.4260
21
346.1142
0
LINE
8
CUT
10
241.4260
20
346.1142
11
241.7074
21
346.0288
0
LINE
8
CUT
10
241.7074
20
346.0288
11
242.0000
21
346.0000
0
LINE
8
CUT
10
242.0000
20
346.0000
11
242.0000
21
346.0000
0
LINE
8
CUT
10
262.0000
20
346.0000
11
262.2926
21
346.0288
0
LINE
8
CUT
10
262.2926
20
346.0288
11
262.5740
21
346.1142
0
LINE
8
CUT
10
262.5740
20
346.1142
11
262.8334
21
346.2528
0
LINE
8
CUT
10
262.8334
20
346.2528
11
263.0607
21
346.4393
0
LINE
8
CUT
10
263.0607
20
346.4393
11
263.2472
21
346.6666
0
LINE
8
CUT
10
263.2472
20
346.6666
11
263.3858
21
346.9260
0
LINE
8
CUT
10
263.3858
20
346.9260
11
263.4712
21
347.2074
0
LINE
8
CUT
10
263.4712
20
347.2074
11
263.5000
21
347.5000
0
LINE
8
CUT
10
263.5000
20
347.5000
11
263.5000
21
356.5000
0
LINE
8
CUT
10
263.5000
20
356.5000
11
263.4712
21
356.7926
0
LINE
8
CUT
10
263.4712
20
356.7926
11
263.3858
21
357.0740
0
LINE
8
CUT
10
263.3858
20
357.0740
11
263.2472
21
357.3334
0
LINE
8
CUT
10
263.2472
20
357.3334
11
263.0607
21
357.5607
0
LINE
8
CUT
10
263.0607
20
357.5607
11
262.8334
21
357.7472
0
LINE
8
CUT
10
262.8334
20
357.7472
11
262.5740
21
357.8858
0
LINE
8
CUT
10
262.5740
20
357.8858
11
262.2926
21
357.9712
0
LINE
8
CUT
10
262.2926
20
357.9712
11
262.0000
21
358.0000
0
LINE
8
CUT
10
262.0000
20
358.0000
11
262.0000
21
358.0000
0
LINE
8
CUT
10
262.0000
20
358.0000
11
261.7074
21
357.9712
0
LINE
8
CUT
10
261.7074
20
357.9712
11
261.4260
21
357.8858
0
LINE
8
CUT
10
261.4260
20
357.8858
11
261.1666
21
357.7472
0
LINE
8
CUT
10
261.1666
20
357.7472
11
260.9393
21
357.5607
0
LINE
8
CUT
10
260.9393
20
357.5607
11
260.7528
21
357.3334
0
LINE
8
CUT
10
260.7528
20
357.3334
11
260.6142
21
357.0740
0
LINE
8
CUT
10
260.6142
20
357.0740
11
260.5288
21
356.7926
0
LINE
8
CUT
10
260.5288
20
356.7926
11
260.5000
21
356.5000
0
LINE
8
CUT
10
260.5000
20
356.5000
11
260.5000
21
347.5000
0
LINE
8
CUT
10
260.5000
20
347.5000
11
260.5288
21
347.2074
0
LINE
8
CUT
10
260.5288
20
347.2074
11
260.6142
21
346.9260
0
LINE
8
CUT
10
260.6142
20
346.9260
11
260.7528
21
346.6666
0
LINE
8
CUT
10
260.7528
20
346.6666
11
260.9393
21
346.4393
0
LINE
8
CUT
10
260.9393
20
346.4393
11
261.1666
21
346.2528
0
LINE
8
CUT
10
261.1666
20
346.2528
11
261.4260
21
346.1142
0
LINE
8
CUT
10
261.4260
20
346.1142
11
261.7074
21
346.0288
0
LINE
8
CUT
10
261.7074
20
346.0288
11
262.0000
21
346.0000
0
LINE
8
CUT
10
262.0000
20
346.0000
11
262.0000
21
346.0000
0
LINE
8
CUT
10
282.0000
20
346.0000
11
282.2926
21
346.0288
0
LINE
8
CUT
10
282.2926
20
346.0288
11
282.5740
21
346.1142
0
LINE
8
CUT
10
282.5740
20
346.1142
11
282.8334
21
346.2528
0
LINE
8
CUT
10
282.8334
20
346.2528
11
283.0607
21
346.4393
0
LINE
8
CUT
10
283.0607
20
346.4393
11
283.2472
21
346.6666
0
LINE
8
CUT
10
283.2472
20
346.6666
11
283.3858
21
346.9260
0
LINE
8
CUT
10
283.3858
20
346.9260
11
283.4712
21
347.2074
0
LINE
8
CUT
10
283.4712
20
347.2074
11
283.5000
21
347.5000
0
LINE
8
CUT
10
283.5000
20
347.5000
11
283.5000
21
356.5000
0
LINE
8
CUT
10
283.5000
20
356.5000
11
283.4712
21
356.7926
0
LINE
8
CUT
10
283.4712
20
356.7926
11
283.3858
21
357.0740
0
LINE
8
CUT
10
283.3858
20
357.0740
11
283.2472
21
357.3334
0
LINE
8
CUT
10
283.2472
20
357.3334
11
283.0607
21
357.5607
0
LINE
8
CUT
10
283.0607
20
357.5607
11
282.8334
21
357.7472
0
LINE
8
CUT
10
282.8334
20
357.7472
11
282.5740
21
357.8858
0
LINE
8
CUT
10
282.5740
20
357.8858
11
282.2926
21
357.9712
0
LINE
8
CUT
10
282.2926
20
357.9712
11
282.0000
21
358.0000
0
LINE
8
CUT
10
282.0000
20
358.0000
11
282.0000
21
358.0000
0
LINE
8
CUT
10
282.0000
20
358.0000
11
281.7074
21
357.9712
0
LINE
8
CUT
10
281.7074
20
357.9712
11
281.4260
21
357.8858
0
LINE
8
CUT
10
281.4260
20
357.8858
11
281.1666
21
357.7472
0
LINE
8
CUT
10
281.1666
20
357.7472
11
280.9393
21
357.5607
0
LINE
8
CUT
10
280.9393
20
357.5607
11
280.7528
21
357.3334
0
LINE
8
CUT
10
280.7528
20
357.3334
11
280.6142
21
357.0740
0
LINE
8
CUT
10
280.6142
20
357.0740
11
280.5288
21
356.7926
0
LINE
8
CUT
10
280.5288
20
356.7926
11
280.5000
21
356.5000
0
LINE
8
CUT
10
280.5000
20
356.5000
11
280.5000
21
347.5000
0
LINE
8
CUT
10
280.5000
20
347.5000
11
280.5288
21
347.2074
0
LINE
8
CUT
10
280.5288
20
347.2074
11
280.6142
21
346.9260
0
LINE
8
CUT
10
280.6142
20
346.9260
11
280.7528
21
346.6666
0
LINE
8
CUT
10
280.7528
20
346.6666
11
280.9393
21
346.4393
0
LINE
8
CUT
10
280.9393
20
346.4393
11
281.1666
21
346.2528
0
LINE
8
CUT
10
281.1666
20
346.2528
11
281.4260
21
346.1142
0
LINE
8
CUT
10
281.4260
20
346.1142
11
281.7074
21
346.0288
0
LINE
8
CUT
10
281.7074
20
346.0288
11
282.0000
21
346.0000
0
LINE
8
CUT
10
282.0000
20
346.0000
11
282.0000
21
346.0000
0
LINE
8
CUT
10
302.0000
20
346.0000
11
302.2926
21
346.0288
0
LINE
8
CUT
10
302.2926
20
346.0288
11
302.5740
21
346.1142
0
LINE
8
CUT
10
302.5740
20
346.1142
11
302.8334
21
346.2528
0
LINE
8
CUT
10
302.8334
20
346.2528
11
303.0607
21
346.4393
0
LINE
8
CUT
10
303.0607
20
346.4393
11
303.2472
21
346.6666
0
LINE
8
CUT
10
303.2472
20
346.6666
11
303.3858
21
346.9260
0
LINE
8
CUT
10
303.3858
20
346.9260
11
303.4712
21
347.2074
0
LINE
8
CUT
10
303.4712
20
347.2074
11
303.5000
21
347.5000
0
LINE
8
CUT
10
303.5000
20
347.5000
11
303.5000
21
356.5000
0
LINE
8
CUT
10
303.5000
20
356.5000
11
303.4712
21
356.7926
0
LINE
8
CUT
10
303.4712
20
356.7926
11
303.3858
21
357.0740
0
LINE
8
CUT
10
303.3858
20
357.0740
11
303.2472
21
357.3334
0
LINE
8
CUT
10
303.2472
20
357.3334
11
303.0607
21
357.5607
0
LINE
8
CUT
10
303.0607
20
357.5607
11
302.8334
21
357.7472
0
LINE
8
CUT
10
302.8334
20
357.7472
11
302.5740
21
357.8858
0
LINE
8
CUT
10
302.5740
20
357.8858
11
302.2926
21
357.9712
0
LINE
8
CUT
10
302.2926
20
357.9712
11
302.0000
21
358.0000
0
LINE
8
CUT
10
302.0000
20
358.0000
11
302.0000
21
358.0000
0
LINE
8
CUT
10
302.0000
20
358.0000
11
301.7074
21
357.9712
0
LINE
8
CUT
10
301.7074
20
357.9712
11
301.4260
21
357.8858
0
LINE
8
CUT
10
301.4260
20
357.8858
11
301.1666
21
357.7472
0
LINE
8
CUT
10
301.1666
20
357.7472
11
300.9393
21
357.5607
0
LINE
8
CUT
10
300.9393
20
357.5607
11
300.7528
21
357.3334
0
LINE
8
CUT
10
300.7528
20
357.3334
11
300.6142
21
357.0740
0
LINE
8
CUT
10
300.6142
20
357.0740
11
300.5288
21
356.7926
0
LINE
8
CUT
10
300.5288
20
356.7926
11
300.5000
21
356.5000
0
LINE
8
CUT
10
300.5000
20
356.5000
11
300.5000
21
347.5000
0
LINE
8
CUT
10
300.5000
20
347.5000
11
300.5288
21
347.2074
0
LINE
8
CUT
10
300.5288
20
347.2074
11
300.6142
21
346.9260
0
LINE
8
CUT
10
300.6142
20
346.9260
11
300.7528
21
346.6666
0
LINE
8
CUT
10
300.7528
20
346.6666
11
300.9393
21
346.4393
0
LINE
8
CUT
10
300.9393
20
346.4393
11
301.1666
21
346.2528
0
LINE
8
CUT
10
301.1666
20
346.2528
11
301.4260
21
346.1142
0
LINE
8
CUT
10
301.4260
20
346.1142
11
301.7074
21
346.0288
0
LINE
8
CUT
10
301.7074
20
346.0288
11
302.0000
21
346.0000
0
LINE
8
CUT
10
302.0000
20
346.0000
11
302.0000
21
346.0000
0
LINE
8
CUT
10
322.0000
20
346.0000
11
322.2926
21
346.0288
0
LINE
8
CUT
10
322.2926
20
346.0288
11
322.5740
21
346.1142
0
LINE
8
CUT
10
322.5740
20
346.1142
11
322.8334
21
346.2528
0
LINE
8
CUT
10
322.8334
20
346.2528
11
323.0607
21
346.4393
0
LINE
8
CUT
10
323.0607
20
346.4393
11
323.2472
21
346.6666
0
LINE
8
CUT
10
323.2472
20
346.6666
11
323.3858
21
346.9260
0
LINE
8
CUT
10
323.3858
20
346.9260
11
323.4712
21
347.2074
0
LINE
8
CUT
10
323.4712
20
347.2074
11
323.5000
21
347.5000
0
LINE
8
CUT
10
323.5000
20
347.5000
11
323.5000
21
356.5000
0
LINE
8
CUT
10
323.5000
20
356.5000
11
323.4712
21
356.7926
0
LINE
8
CUT
10
323.4712
20
356.7926
11
323.3858
21
357.0740
0
LINE
8
CUT
10
323.3858
20
357.0740
11
323.2472
21
357.3334
0
LINE
8
CUT
10
323.2472
20
357.3334
11
323.0607
21
357.5607
0
LINE
8
CUT
10
323.0607
20
357.5607
11
322.8334
21
357.7472
0
LINE
8
CUT
10
322.8334
20
357.7472
11
322.5740
21
357.8858
0
LINE
8
CUT
10
322.5740
20
357.8858
11
322.2926
21
357.9712
0
LINE
8
CUT
10
322.2926
20
357.9712
11
322.0000
21
358.0000
0
LINE
8
CUT
10
322.0000
20
358.0000
11
322.0000
21
358.0000
0
LINE
8
CUT
10
322.0000
20
358.0000
11
321.7074
21
357.9712
0
LINE
8
CUT
10
321.7074
20
357.9712
11
321.4260
21
357.8858
0
LINE
8
CUT
10
321.4260
20
357.8858
11
321.1666
21
357.7472
0
LINE
8
CUT
10
321.1666
20
357.7472
11
320.9393
21
357.5607
0
LINE
8
CUT
10
320.9393
20
357.5607
11
320.7528
21
357.3334
0
LINE
8
CUT
10
320.7528
20
357.3334
11
320.6142
21
357.0740
0
LINE
8
CUT
10
320.6142
20
357.0740
11
320.5288
21
356.7926
0
LINE
8
CUT
10
320.5288
20
356.7926
11
320.5000
21
356.5000
0
LINE
8
CUT
10
320.5000
20
356.5000
11
320.5000
21
347.5000
0
LINE
8
CUT
10
320.5000
20
347.5000
11
320.5288
21
347.2074
0
LINE
8
CUT
10
320.5288
20
347.2074
11
320.6142
21
346.9260
0
LINE
8
CUT
10
320.6142
20
346.9260
11
320.7528
21
346.6666
0
LINE
8
CUT
10
320.7528
20
346.6666
11
320.9393
21
346.4393
0
LINE
8
CUT
10
320.9393
20
346.4393
11
321.1666
21
346.2528
0
LINE
8
CUT
10
321.1666
20
346.2528
11
321.4260
21
346.1142
0
LINE
8
CUT
10
321.4260
20
346.1142
11
321.7074
21
346.0288
0
LINE
8
CUT
10
321.7074
20
346.0288
11
322.0000
21
346.0000
0
LINE
8
CUT
10
322.0000
20
346.0000
11
322.0000
21
346.0000
0
LINE
8
CUT
10
342.0000
20
346.0000
11
342.2926
21
346.0288
0
LINE
8
CUT
10
342.2926
20
346.0288
11
342.5740
21
346.1142
0
LINE
8
CUT
10
342.5740
20
346.1142
11
342.8334
21
346.2528
0
LINE
8
CUT
10
342.8334
20
346.2528
11
343.0607
21
346.4393
0
LINE
8
CUT
10
343.0607
20
346.4393
11
343.2472
21
346.6666
0
LINE
8
CUT
10
343.2472
20
346.6666
11
343.3858
21
346.9260
0
LINE
8
CUT
10
343.3858
20
346.9260
11
343.4712
21
347.2074
0
LINE
8
CUT
10
343.4712
20
347.2074
11
343.5000
21
347.5000
0
LINE
8
CUT
10
343.5000
20
347.5000
11
343.5000
21
356.5000
0
LINE
8
CUT
10
343.5000
20
356.5000
11
343.4712
21
356.7926
0
LINE
8
CUT
10
343.4712
20
356.7926
11
343.3858
21
357.0740
0
LINE
8
CUT
10
343.3858
20
357.0740
11
343.2472
21
357.3334
0
LINE
8
CUT
10
343.2472
20
357.3334
11
343.0607
21
357.5607
0
LINE
8
CUT
10
343.0607
20
357.5607
11
342.8334
21
357.7472
0
LINE
8
CUT
10
342.8334
20
357.7472
11
342.5740
21
357.8858
0
LINE
8
CUT
10
342.5740
20
357.8858
11
342.2926
21
357.9712
0
LINE
8
CUT
10
342.2926
20
357.9712
11
342.0000
21
358.0000
0
LINE
8
CUT
10
342.0000
20
358.0000
11
342.0000
21
358.0000
0
LINE
8
CUT
10
342.0000
20
358.0000
11
341.7074
21
357.9712
0
LINE
8
CUT
10
341.7074
20
357.9712
11
341.4260
21
357.8858
0
LINE
8
CUT
10
341.4260
20
357.8858
11
341.1666
21
357.7472
0
LINE
8
CUT
10
341.1666
20
357.7472
11
340.9393
21
357.5607
0
LINE
8
CUT
10
340.9393
20
357.5607
11
340.7528
21
357.3334
0
LINE
8
CUT
10
340.7528
20
357.3334
11
340.6142
21
357.0740
0
LINE
8
CUT
10
340.6142
20
357.0740
11
340.5288
21
356.7926
0
LINE
8
CUT
10
340.5288
20
356.7926
11
340.5000
21
356.5000
0
LINE
8
CUT
10
340.5000
20
356.5000
11
340.5000
21
347.5000
0
LINE
8
CUT
10
340.5000
20
347.5000
11
340.5288
21
347.2074
0
LINE
8
CUT
10
340.5288
20
347.2074
11
340.6142
21
346.9260
0
LINE
8
CUT
10
340.6142
20
346.9260
11
340.7528
21
346.6666
0
LINE
8
CUT
10
340.7528
20
346.6666
11
340.9393
21
346.4393
0
LINE
8
CUT
10
340.9393
20
346.4393
11
341.1666
21
346.2528
0
LINE
8
CUT
10
341.1666
20
346.2528
11
341.4260
21
346.1142
0
LINE
8
CUT
10
341.4260
20
346.1142
11
341.7074
21
346.0288
0
LINE
8
CUT
10
341.7074
20
346.0288
11
342.0000
21
346.0000
0
LINE
8
CUT
10
342.0000
20
346.0000
11
342.0000
21
346.0000
0
LINE
8
CUT
10
362.0000
20
346.0000
11
362.2926
21
346.0288
0
LINE
8
CUT
10
362.2926
20
346.0288
11
362.5740
21
346.1142
0
LINE
8
CUT
10
362.5740
20
346.1142
11
362.8334
21
346.2528
0
LINE
8
CUT
10
362.8334
20
346.2528
11
363.0607
21
346.4393
0
LINE
8
CUT
10
363.0607
20
346.4393
11
363.2472
21
346.6666
0
LINE
8
CUT
10
363.2472
20
346.6666
11
363.3858
21
346.9260
0
LINE
8
CUT
10
363.3858
20
346.9260
11
363.4712
21
347.2074
0
LINE
8
CUT
10
363.4712
20
347.2074
11
363.5000
21
347.5000
0
LINE
8
CUT
10
363.5000
20
347.5000
11
363.5000
21
356.5000
0
LINE
8
CUT
10
363.5000
20
356.5000
11
363.4712
21
356.7926
0
LINE
8
CUT
10
363.4712
20
356.7926
11
363.3858
21
357.0740
0
LINE
8
CUT
10
363.3858
20
357.0740
11
363.2472
21
357.3334
0
LINE
8
CUT
10
363.2472
20
357.3334
11
363.0607
21
357.5607
0
LINE
8
CUT
10
363.0607
20
357.5607
11
362.8334
21
357.7472
0
LINE
8
CUT
10
362.8334
20
357.7472
11
362.5740
21
357.8858
0
LINE
8
CUT
10
362.5740
20
357.8858
11
362.2926
21
357.9712
0
LINE
8
CUT
10
362.2926
20
357.9712
11
362.0000
21
358.0000
0
LINE
8
CUT
10
362.0000
20
358.0000
11
362.0000
21
358.0000
0
LINE
8
CUT
10
362.0000
20
358.0000
11
361.7074
21
357.9712
0
LINE
8
CUT
10
361.7074
20
357.9712
11
361.4260
21
357.8858
0
LINE
8
CUT
10
361.4260
20
357.8858
11
361.1666
21
357.7472
0
LINE
8
CUT
10
361.1666
20
357.7472
11
360.9393
21
357.5607
0
LINE
8
CUT
10
360.9393
20
357.5607
11
360.7528
21
357.3334
0
LINE
8
CUT
10
360.7528
20
357.3334
11
360.6142
21
357.0740
0
LINE
8
CUT
10
360.6142
20
357.0740
11
360.5288
21
356.7926
0
LINE
8
CUT
10
360.5288
20
356.7926
11
360.5000
21
356.5000
0
LINE
8
CUT
10
360.5000
20
356.5000
11
360.5000
21
347.5000
0
LINE
8
CUT
10
360.5000
20
347.5000
11
360.5288
21
347.2074
0
LINE
8
CUT
10
360.5288
20
347.2074
11
360.6142
21
346.9260
0
LINE
8
CUT
10
360.6142
20
346.9260
11
360.7528
21
346.6666
0
LINE
8
CUT
10
360.7528
20
346.6666
11
360.9393
21
346.4393
0
LINE
8
CUT
10
360.9393
20
346.4393
11
361.1666
21
346.2528
0
LINE
8
CUT
10
361.1666
20
346.2528
11
361.4260
21
346.1142
0
LINE
8
CUT
10
361.4260
20
346.1142
11
361.7074
21
346.0288
0
LINE
8
CUT
10
361.7074
20
346.0288
11
362.0000
21
346.0000
0
LINE
8
CUT
10
362.0000
20
346.0000
11
362.0000
21
346.0000
0
LINE
8
CUT
10
382.0000
20
346.0000
11
382.2926
21
346.0288
0
LINE
8
CUT
10
382.2926
20
346.0288
11
382.5740
21
346.1142
0
LINE
8
CUT
10
382.5740
20
346.1142
11
382.8334
21
346.2528
0
LINE
8
CUT
10
382.8334
20
346.2528
11
383.0607
21
346.4393
0
LINE
8
CUT
10
383.0607
20
346.4393
11
383.2472
21
346.6666
0
LINE
8
CUT
10
383.2472
20
346.6666
11
383.3858
21
346.9260
0
LINE
8
CUT
10
383.3858
20
346.9260
11
383.4712
21
347.2074
0
LINE
8
CUT
10
383.4712
20
347.2074
11
383.5000
21
347.5000
0
LINE
8
CUT
10
383.5000
20
347.5000
11
383.5000
21
356.5000
0
LINE
8
CUT
10
383.5000
20
356.5000
11
383.4712
21
356.7926
0
LINE
8
CUT
10
383.4712
20
356.7926
11
383.3858
21
357.0740
0
LINE
8
CUT
10
383.3858
20
357.0740
11
383.2472
21
357.3334
0
LINE
8
CUT
10
383.2472
20
357.3334
11
383.0607
21
357.5607
0
LINE
8
CUT
10
383.0607
20
357.5607
11
382.8334
21
357.7472
0
LINE
8
CUT
10
382.8334
20
357.7472
11
382.5740
21
357.8858
0
LINE
8
CUT
10
382.5740
20
357.8858
11
382.2926
21
357.9712
0
LINE
8
CUT
10
382.2926
20
357.9712
11
382.0000
21
358.0000
0
LINE
8
CUT
10
382.0000
20
358.0000
11
382.0000
21
358.0000
0
LINE
8
CUT
10
382.0000
20
358.0000
11
381.7074
21
357.9712
0
LINE
8
CUT
10
381.7074
20
357.9712
11
381.4260
21
357.8858
0
LINE
8
CUT
10
381.4260
20
357.8858
11
381.1666
21
357.7472
0
LINE
8
CUT
10
381.1666
20
357.7472
11
380.9393
21
357.5607
0
LINE
8
CUT
10
380.9393
20
357.5607
11
380.7528
21
357.3334
0
LINE
8
CUT
10
380.7528
20
357.3334
11
380.6142
21
357.0740
0
LINE
8
CUT
10
380.6142
20
357.0740
11
380.5288
21
356.7926
0
LINE
8
CUT
10
380.5288
20
356.7926
11
380.5000
21
356.5000
0
LINE
8
CUT
10
380.5000
20
356.5000
11
380.5000
21
347.5000
0
LINE
8
CUT
10
380.5000
20
347.5000
11
380.5288
21
347.2074
0
LINE
8
CUT
10
380.5288
20
347.2074
11
380.6142
21
346.9260
0
LINE
8
CUT
10
380.6142
20
346.9260
11
380.7528
21
346.6666
0
LINE
8
CUT
10
380.7528
20
346.6666
11
380.9393
21
346.4393
0
LINE
8
CUT
10
380.9393
20
346.4393
11
381.1666
21
346.2528
0
LINE
8
CUT
10
381.1666
20
346.2528
11
381.4260
21
346.1142
0
LINE
8
CUT
10
381.4260
20
346.1142
11
381.7074
21
346.0288
0
LINE
8
CUT
10
381.7074
20
346.0288
11
382.0000
21
346.0000
0
LINE
8
CUT
10
382.0000
20
346.0000
11
382.0000
21
346.0000
0
LINE
8
CUT
10
418.0000
20
294.0000
11
438.0000
21
294.0000
0
LINE
8
CUT
10
438.0000
20
294.0000
11
418.0000
21
314.0000
0
LINE
8
CUT
10
418.0000
20
314.0000
11
418.0000
21
294.0000
0
CIRCLE
8
CUT
10
425.0000
20
301.0000
40
1.7000
0
LINE
8
CUT
10
444.0000
20
294.0000
11
464.0000
21
294.0000
0
LINE
8
CUT
10
464.0000
20
294.0000
11
444.0000
21
314.0000
0
LINE
8
CUT
10
444.0000
20
314.0000
11
444.0000
21
294.0000
0
CIRCLE
8
CUT
10
451.0000
20
301.0000
40
1.7000
0
LINE
8
CUT
10
470.0000
20
294.0000
11
490.0000
21
294.0000
0
LINE
8
CUT
10
490.0000
20
294.0000
11
470.0000
21
314.0000
0
LINE
8
CUT
10
470.0000
20
314.0000
11
470.0000
21
294.0000
0
CIRCLE
8
CUT
10
477.0000
20
301.0000
40
1.7000
0
LINE
8
CUT
10
496.0000
20
294.0000
11
516.0000
21
294.0000
0
LINE
8
CUT
10
516.0000
20
294.0000
11
496.0000
21
314.0000
0
LINE
8
CUT
10
496.0000
20
314.0000
11
496.0000
21
294.0000
0
CIRCLE
8
CUT
10
503.0000
20
301.0000
40
1.7000
0
LINE
8
CUT
10
6.0000
20
370.0000
11
26.0000
21
370.0000
0
LINE
8
CUT
10
26.0000
20
370.0000
11
6.0000
21
390.0000
0
LINE
8
CUT
10
6.0000
20
390.0000
11
6.0000
21
370.0000
0
CIRCLE
8
CUT
10
13.0000
20
377.0000
40
1.7000
0
LINE
8
CUT
10
32.0000
20
370.0000
11
52.0000
21
370.0000
0
LINE
8
CUT
10
52.0000
20
370.0000
11
32.0000
21
390.0000
0
LINE
8
CUT
10
32.0000
20
390.0000
11
32.0000
21
370.0000
0
CIRCLE
8
CUT
10
39.0000
20
377.0000
40
1.7000
0
LINE
8
CUT
10
58.0000
20
370.0000
11
78.0000
21
370.0000
0
LINE
8
CUT
10
78.0000
20
370.0000
11
58.0000
21
390.0000
0
LINE
8
CUT
10
58.0000
20
390.0000
11
58.0000
21
370.0000
0
CIRCLE
8
CUT
10
65.0000
20
377.0000
40
1.7000
0
LINE
8
CUT
10
84.0000
20
370.0000
11
104.0000
21
370.0000
0
LINE
8
CUT
10
104.0000
20
370.0000
11
84.0000
21
390.0000
0
LINE
8
CUT
10
84.0000
20
390.0000
11
84.0000
21
370.0000
0
CIRCLE
8
CUT
10
91.0000
20
377.0000
40
1.7000
0
ENDSEC
0
EOF
